<svg width="338" height="87" viewBox="0 0 338 87" fill="none" xmlns="http://www.w3.org/2000/svg">
<path d="M14.912 61.552H29.248V70H3.968V25.072H14.912V61.552ZM45.412 25.072V70H34.468V25.072H45.412ZM82.591 25.072V33.84H64.287V43.312H77.983V51.824H64.287V70H53.343V25.072H82.591ZM99.287 33.84V42.928H113.943V51.376H99.287V61.232H115.863V70H88.343V25.072H115.863V33.84H99.287ZM147.475 61.552H161.811V70H136.531V25.072H147.475V61.552ZM177.975 33.84V42.928H192.631V51.376H177.975V61.232H194.551V70H167.031V25.072H194.551V33.84H177.975ZM243.832 25.072L227.896 70H214.2L198.264 25.072H209.912L221.048 58.992L232.248 25.072H243.832ZM259.35 33.84V42.928H274.006V51.376H259.35V61.232H275.926V70H248.406V25.072H275.926V33.84H259.35ZM293.975 61.552H308.311V70H283.031V25.072H293.975V61.552Z" fill="white"/>
<path d="M192 18L187.5 20.5981L187.5 15.4019L192 18Z" fill="#1C9FFE"/>
<path d="M129.377 77L68 77M189 18L127.623 18M128.5 18V78" stroke="url(#paint0_radial_8_1535)" stroke-width="2"/>
<defs>
<radialGradient id="paint0_radial_8_1535" cx="0" cy="0" r="1" gradientUnits="userSpaceOnUse" gradientTransform="translate(192.5 14) rotate(153.017) scale(153.175 374.764)">
<stop stop-color="#0093FE"/>
<stop offset="1" stop-color="#E0EFFA" stop-opacity="0"/>
</radialGradient>
</defs>
</svg>
