<svg width="195" height="150" viewBox="0 0 195 150" fill="none" xmlns="http://www.w3.org/2000/svg">
<path d="M14.912 61.552H29.248V70H3.968V25.072H14.912V61.552ZM45.412 25.072V70H34.468V25.072H45.412ZM82.591 25.072V33.84H64.287V43.312H77.983V51.824H64.287V70H53.343V25.072H82.591ZM99.287 33.84V42.928H113.943V51.376H99.287V61.232H115.863V70H88.343V25.072H115.863V33.84H99.287Z" fill="black"/>
<path d="M25.196 124.552H39.532V133H14.252V88.072H25.196V124.552ZM55.696 96.84V105.928H70.352V114.376H55.696V124.232H72.272V133H44.752V88.072H72.272V96.84H55.696ZM121.553 88.072L105.617 133H91.921L75.985 88.072H87.633L98.769 121.992L109.969 88.072H121.553ZM137.071 96.84V105.928H151.727V114.376H137.071V124.232H153.647V133H126.127V88.072H153.647V96.84H137.071ZM171.696 124.552H186.032V133H160.752V88.072H171.696V124.552Z" fill="black"/>
</svg>
